<?xml version="1.0" standalone="no"?><!DOCTYPE svg PUBLIC "-//W3C//DTD SVG 1.1//EN" "http://www.w3.org/Graphics/SVG/1.1/DTD/svg11.dtd"><svg t="1548670199055" class="icon" style="" viewBox="0 0 1365 1024" version="1.1" xmlns="http://www.w3.org/2000/svg" p-id="12952" xmlns:xlink="http://www.w3.org/1999/xlink" width="266.6015625" height="200"><defs><style type="text/css"></style></defs><path d="M814.62303 803.033212V477.959758l190.200243-31.045819c-30.301091-161.621333-171.194182-283.880727-340.557576-283.880727-191.45697 0-346.65503 156.222061-346.65503 348.966788 0 192.729212 155.198061 348.966788 346.65503 348.966788 18.571636 0 36.786424-1.520485 54.566788-4.344243 13.901576-23.257212 38.88097-41.921939 70.578424-49.896727a125.874424 125.874424 0 0 1 25.212121-3.692606z m-86.667636-611.529697l-37.127758 163.80897h-37.143272l-26.530909-163.80897c38.912-19.595636 100.801939 0 100.801939 0zM664.265697 641.551515c-71.074909 0-128.698182-58.011152-128.698182-129.551515 0-71.555879 57.623273-129.56703 128.698182-129.56703 71.090424 0 128.698182 58.011152 128.698182 129.56703 0 71.540364-57.607758 129.551515-128.698182 129.551515z m0-228.336485c-54.116848 0-98.117818 44.295758-98.117818 98.78497 0 54.473697 44.00097 98.78497 98.117818 98.78497 54.132364 0 98.133333-44.311273 98.133333-98.78497 0-54.489212-44.00097-98.78497-98.133333-98.78497z m0 169.332364c-38.648242 0-70.081939-31.650909-70.081939-70.547394 0-38.912 31.449212-70.562909 70.081939-70.562909 38.663758 0 70.081939 31.650909 70.081939 70.562909 0 38.896485-31.418182 70.547394-70.081939 70.547394z m44.388848 334.273939c1.691152 9.386667 5.383758 18.106182 10.705455 25.925819a430.390303 430.390303 0 0 1-55.078788 3.661575C426.325333 946.408727 232.727273 751.538424 232.727273 512 232.727273 272.461576 426.325333 77.575758 664.265697 77.575758c211.223273 0 387.382303 153.615515 424.308364 355.669333l-41.890909 6.842182C1013.030788 258.342788 854.419394 120.304485 664.265697 120.304485 449.722182 120.304485 275.176727 296.013576 275.176727 512c0 215.970909 174.545455 391.68 389.08897 391.68 14.36703 0 28.547879-0.837818 42.511515-2.373818 0.124121 5.15103 0.682667 10.333091 1.877333 15.515151zM1132.606061 456.67297V833.318788c0 31.185455-23.102061 56.071758-59.128243 65.241212-39.563636 9.867636-77.761939-6.811152-85.333333-37.329455-7.586909-30.580364 18.323394-63.363879 57.871515-73.340121 17.873455-4.437333 35.467636-3.537455 50.176 1.691152V562.65697l-202.27103 37.220848-0.930909 282.298182h-0.046546c-0.170667 26.732606-24.110545 52.984242-58.569697 61.564121-39.082667 9.898667-80.027152-8.828121-84.417939-36.848485-7.524848-30.23903 18.106182-62.696727 57.266424-72.564363 17.625212-4.421818 34.84703-3.537455 49.322667 1.56703V501.744485L1132.606061 456.67297z" fill="#d4237a" p-id="12953"></path></svg>